<?xml version="1.0" encoding="utf-8"?>
<!-- Generator: Adobe Illustrator 22.0.1, SVG Export Plug-In . SVG Version: 6.00 Build 0)  -->
<svg version="1.0" id="Layer_1" xmlns="http://www.w3.org/2000/svg" xmlns:xlink="http://www.w3.org/1999/xlink" x="0px" y="0px"
	 viewBox="0 0 589.1 135.3" enable-background="new 0 0 589.1 135.3" xml:space="preserve">
<g id="Border_Spacing" display="none">
	<rect x="1.8" y="2.5" display="inline" fill="#CC6699" width="569.1" height="109.7"/>
	<rect x="1.8" y="-52.4" display="inline" fill="#333333" width="569.1" height="54.8"/>
	<rect x="-53" y="-52.4" display="inline" fill="#333333" width="54.8" height="219.4"/>
	<rect x="571" y="-52.4" display="inline" fill="#333333" width="54.8" height="219.4"/>
	<rect x="1.8" y="112.2" display="inline" fill="#333333" width="569.1" height="54.8"/>
</g>
<g id="Layer_1_1_">
	<g>
		<circle fill="#FFFFFF" cx="318.2" cy="48.5" r="12.6"/>
		<path fill="#2F94AC" d="M350.2,34.3c-12.9-12.8-33.8-12.8-46.7,0c-12.9,12.8-12.9,33.5,0,46.3s33.8,12.8,46.7,0
			C363.1,67.8,363.1,47.1,350.2,34.3 M325.5,56c-4.3,4.2-11.2,4.2-15.4,0c-4.3-4.2-4.3-11,0-15.3c4.3-4.2,11.2-4.2,15.4,0
			C329.7,45,329.7,51.8,325.5,56"/>
		<polygon points="1.8,2.5 83.4,2.5 83.4,14.5 15.5,14.5 15.5,47.7 76.2,47.7 76.2,59.5 15.5,59.5 15.5,100.1 85.7,100.1 
			85.7,112.2 1.8,112.2 		"/>
		<path d="M107.8,122.8c4.9,0,8.8-1,11.7-3c2.9-2,5.7-5.8,8.3-11.4l0.7-1.7l-37.9-77h13.8L129,81.4l5.6,12.9l5.6-13.4l22.4-51.1
			h13.5l-37.9,84.5c-2,4.6-4.3,8.4-6.8,11.4c-2.5,3-5.2,5.1-8.1,6.4c-2.9,1.2-5.4,2-7.6,2.4s-4.8,0.6-7.9,0.6
			C107.8,135.1,107.8,122.8,107.8,122.8z"/>
		<path d="M245.6,65.6c-0.8-7.6-3.8-13.8-9-18.7s-11.3-7.4-18.4-7.4c-6.9,0-13,2.5-18.3,7.5s-8.4,11.2-9.4,18.6H245.6z M189.2,40.6
			c8.1-8.4,17.9-12.6,29.6-12.6c10.9,0,20.3,4.2,28.2,12.5c7.9,8.4,11.8,18.3,11.8,29.8l-0.3,5.4h-67.7c1,7.9,4.4,14.3,10.1,19.1
			c5.7,4.8,12.4,7.3,20.2,7.3c10,0,18.6-3.2,25.6-9.5l6.1,9.3c-9.5,7.9-20,11.8-31.8,11.8c-12.2,0-22.6-4-31.1-12
			s-12.8-18.3-12.8-30.8C177.1,59.2,181.1,49.1,189.2,40.6"/>
		<path d="M400,29.7h13.5v49.1c0,15.6,7.7,23.4,23.1,23.4c7.4,0,13.5-2.3,18.3-6.9s7.2-10.9,7.2-18.8V29.7h13.5v82.4H462V100
			c-6.4,9.6-15.5,13.8-28.4,13.8c-11,0-19.9-3.1-25.6-9.2s-8-14.1-8-23.9V29.7z"/>
		<path d="M557.8,65.6c-0.8-7.6-3.8-13.8-9-18.7s-11.3-7.4-18.4-7.4c-6.9,0-13,2.5-18.3,7.5c-5.2,5-8.4,11.2-9.4,18.6H557.8z
			 M501.4,40.6c8.1-8.4,18-12.6,29.6-12.6c10.9,0,20.3,4.2,28.2,12.5C567,48.9,571,58.8,571,70.3l-0.4,5.4H503
			c1,7.9,4.4,14.3,10.1,19.1c5.7,4.8,12.4,7.3,20.2,7.3c10,0,18.6-3.2,25.6-9.5l6.1,9.3c-9.5,7.9-20,11.8-31.8,11.8
			c-12.2,0-22.6-4-31.1-12s-12.8-18.3-12.8-30.8C489.3,59.2,493.3,49.1,501.4,40.6"/>
		<path d="M295.3,88.7c-17.4-17.3-17.4-45.4,0-62.6c8.4-8.4,19.7-13,31.6-13s23.2,4.6,31.6,13c8.5,8.4,13.1,19.5,13.1,31.3
			s-4.7,22.9-13.1,31.3s-19.7,13-31.6,13C314.9,101.7,303.7,97.1,295.3,88.7 M389.2,110.3l-17.8-17.6c8.1-10,12.5-22.2,12.5-35.2
			c0-15.1-5.9-29.3-16.7-39.9C356.4,6.8,342.1,0.9,326.9,0.9s-29.6,5.9-40.3,16.6c-22.2,22-22.2,57.9,0,79.9
			c10.8,10.7,25.1,16.5,40.3,16.5c13,0,25.3-4.3,35.3-12.2l17.8,17.7L389.2,110.3z"/>
		<g>
			<path d="M570.2,35.7c-2.2-2.2-3.3-4.9-3.3-8.1s1.1-5.9,3.3-8.1s4.9-3.3,8-3.3c3.2,0,5.9,1.1,8.1,3.3c2.2,2.2,3.3,4.9,3.3,8.1
				s-1.1,5.9-3.3,8.1s-4.9,3.3-8.1,3.3C575.1,39,572.4,37.9,570.2,35.7z M584.7,34.1c1.8-1.8,2.6-3.9,2.6-6.5s-0.9-4.7-2.6-6.5
				c-1.8-1.8-3.9-2.6-6.5-2.6c-2.5,0-4.7,0.9-6.5,2.6c-1.8,1.8-2.6,3.9-2.6,6.5c0,2.5,0.9,4.7,2.6,6.5c1.8,1.8,3.9,2.7,6.5,2.7
				S582.9,35.9,584.7,34.1z M576,32.8c-0.7,0-1.4,0-2.1,0V21.9h5.4c1.1,0,2,0.3,2.7,1c0.7,0.6,1.1,1.4,1.1,2.4
				c0,0.9-0.2,1.6-0.7,2.1c-0.4,0.6-1.1,0.9-1.9,1.1l3,4.3h-2.6l-2.8-4H576V32.8z M576,23.9c0,1,0,2.1,0,3.1h2.7
				c0.7,0,1.2-0.1,1.5-0.4s0.5-0.7,0.5-1.2s-0.2-0.9-0.5-1.1s-0.8-0.4-1.5-0.4H576z"/>
		</g>
	</g>
</g>
</svg>
